<?xml version="1.0" encoding="UTF-8"?>
<svg width="32px" height="32px" viewBox="0 0 32 32" xmlns="http://www.w3.org/2000/svg" xmlns:xlink="http://www.w3.org/1999/xlink" version="1.1">
 <!-- Generated by Pixelmator Pro 2.1.4 -->
 <path id="Trazado" d="M21.74 15.923 C21.74 19.08 19.181 21.639 16.024 21.639 12.867 21.639 10.308 19.08 10.308 15.923 10.308 12.766 12.867 10.207 16.024 10.207 19.181 10.207 21.74 12.766 21.74 15.923 Z" fill="#ffffff" fill-opacity="1" stroke="none"/>
 <path id="Trazado-1" d="M27.688 6.224 C27.688 5.454 27.239 4.755 26.539 4.436 25.839 4.116 25.017 4.235 24.436 4.74 18.557 0.315 10.257 1.192 5.431 6.746 0.605 12.301 0.898 20.642 6.101 25.845 11.304 31.048 19.645 31.341 25.2 26.515 30.754 21.689 31.631 13.389 27.206 7.51 27.517 7.154 27.688 6.697 27.688 6.224 Z M16.023 29.452 C10.138 29.454 4.927 25.651 3.133 20.046 1.34 14.442 3.375 8.32 8.168 4.905 12.96 1.49 19.411 1.565 24.123 5.09 23.569 5.871 23.66 6.937 24.337 7.614 25.014 8.291 26.08 8.382 26.861 7.828 29.929 11.928 30.417 17.41 28.123 21.988 25.828 26.567 21.144 29.456 16.023 29.452 Z" fill="#ffffff" fill-opacity="1" stroke="none"/>
</svg>
