<?xml version="1.0" encoding="UTF-8"?>
<svg width="128px" height="128px" viewBox="0 0 128 128" xmlns="http://www.w3.org/2000/svg" xmlns:xlink="http://www.w3.org/1999/xlink" version="1.1">
 <!-- Generated by Pixelmator Pro 2.1.4 -->
 <path id="Trazado" d="M88.038 42.812 C89.643 47.455 90.799 52.195 91.179 57.108 91.651 63.203 91.435 69.255 90.15 75.25 90.115 75.415 90.041 75.57 89.986 75.73 89.583 75.731 89.172 75.681 88.778 75.742 85.449 76.265 82.123 76.807 78.797 77.346 75.359 77.903 71.916 78.438 68.484 79.033 67.268 79.243 65.763 78.992 65.272 80.674 65.258 80.72 65.118 80.728 65.037 80.754 L65.203 70.703 C65.146 62.619 65.09 54.535 65.034 46.451 L66.636 46.176 C69.256 45.747 71.876 45.312 74.498 44.895 77.627 44.398 80.759 43.915 83.89 43.43 85.271 43.215 86.654 43.018 88.038 42.812 Z" fill="#ffffff" fill-opacity="1" stroke="none"/>
 <path id="Trazado-1" d="M61.729 110.054 C60.039 108.601 58.29 107.212 56.67 105.684 47.953 97.462 41.577 87.785 38.437 76.118 37.572 72.907 36.995 69.644 36.81 66.326 36.68 64.004 36.492 61.661 36.656 59.351 37.093 53.207 37.981 47.122 39.783 41.204 L39.882 41.066 C40.057 41.299 40.309 41.505 40.398 41.768 42.157 46.948 43.903 52.132 45.64 57.319 51.098 73.619 56.549 89.923 62.016 106.219 62.123 106.537 62.4 106.798 62.599 107.085 Z" fill="#ffffff" fill-opacity="1" stroke="none"/>
 <path id="Trazado-2" d="M88.038 42.812 C86.654 43.018 85.27 43.215 83.889 43.428 80.758 43.913 77.626 44.396 74.497 44.893 71.875 45.31 69.255 45.745 66.635 46.174 L65.033 46.449 65.021 45.404 C64.968 44.545 64.877 43.687 64.867 42.828 64.798 37.35 64.755 31.872 64.687 26.394 64.645 22.965 64.582 19.537 64.512 16.109 64.469 13.979 64.423 11.848 64.327 9.721 64.275 8.578 64.091 7.441 64.016 6.298 63.974 5.641 64.032 4.979 64.045 4.319 64.862 5.902 65.661 7.497 66.501 9.068 67.828 11.552 69.942 13.382 71.845 15.379 79.368 23.271 84.709 32.447 88.038 42.812 Z" fill="#ffffff" fill-opacity="1" stroke="none"/>
 <path id="Trazado-3" d="M65.036 80.753 C65.117 80.727 65.258 80.719 65.271 80.673 65.762 78.991 67.267 79.242 68.483 79.032 71.915 78.438 75.358 77.902 78.796 77.345 82.122 76.806 85.448 76.264 88.777 75.741 89.171 75.679 89.582 75.73 89.985 75.729 89.363 77.949 88.873 80.217 88.084 82.376 87.188 84.825 86.104 87.215 84.953 89.558 83.233 93.061 81.09 96.328 78.6 99.321 76.681 101.629 74.542 103.762 72.398 105.869 71.213 107.034 69.816 107.983 68.516 109.03 L68.179 108.8 66.965 107.762 65.709 105.009 C64.844 101.786 64.39 98.505 64.315 95.171 L64.338 94.61 64.509 92.184 C64.566 91.356 64.642 90.529 64.677 89.699 64.806 86.717 64.918 83.735 65.036 80.753 Z" fill="#ffffff" fill-opacity="1" stroke="none"/>
 <path id="Trazado-4" d="M65.036 80.753 C64.918 83.735 64.806 86.717 64.679 89.7 64.644 90.53 64.568 91.357 64.511 92.185 L63.746 92.474 C62.047 87.472 60.347 82.523 58.684 77.561 55.934 69.352 53.217 61.13 50.471 52.919 48.254 46.291 46.019 39.67 43.771 33.052 43.666 32.742 43.364 32.5 43.154 32.226 L48.05 23.224 C48.218 23.516 48.44 23.789 48.546 24.103 50.811 30.806 53.072 37.51 55.314 44.221 58.23 52.951 61.128 61.688 64.042 70.419 64.158 70.768 64.35 71.09 64.533 71.481 L65.203 70.701 C65.147 74.052 65.091 77.402 65.036 80.753 Z" fill="#ffffff" fill-opacity="1" stroke="none"/>
 <path id="Trazado-5" d="M43.155 32.227 C43.365 32.501 43.666 32.743 43.772 33.053 46.02 39.671 48.255 46.292 50.472 52.92 53.218 61.131 55.935 69.353 58.685 77.562 60.347 82.523 62.047 87.473 63.747 92.475 L64.512 92.186 64.341 94.612 64.186 95.171 C63.92 97.827 63.696 100.489 63.372 103.139 63.209 104.467 62.863 105.771 62.6 107.086 62.402 106.799 62.124 106.538 62.017 106.22 56.55 89.923 51.099 73.62 45.641 57.32 43.904 52.133 42.158 46.949 40.399 41.769 40.31 41.506 40.059 41.3 39.883 41.067 40.973 38.12 42.064 35.173 43.155 32.227 Z" fill="#ffffff" fill-opacity="1" stroke="none"/>
 <path id="Trazado-6" d="M65.202 70.702 L64.532 71.482 C64.349 71.091 64.157 70.768 64.041 70.42 61.128 61.689 58.229 52.952 55.313 44.222 53.071 37.511 50.81 30.807 48.545 24.104 48.44 23.79 48.218 23.516 48.049 23.225 L54.104 15.26 C54.295 15.515 54.567 15.742 54.666 16.029 56.347 20.95 58.013 25.877 59.669 30.807 61.216 35.411 62.74 40.022 64.305 44.62 64.41 44.928 64.775 45.146 65.019 45.406 L65.031 46.451 C65.089 54.533 65.146 62.618 65.202 70.702 Z" fill="#ffffff" fill-opacity="1" stroke="none"/>
 <path id="Trazado-7" d="M65.021 45.404 C64.777 45.144 64.412 44.926 64.307 44.618 62.742 40.02 61.218 35.409 59.671 30.805 58.015 25.875 56.349 20.949 54.668 16.027 54.569 15.74 54.297 15.513 54.106 15.258 56.075 13.33 57.983 11.333 60.031 9.494 61.852 7.86 63.316 6.108 63.383 3.526 63.386 3.419 63.442 3.312 63.528 3.012 L64.047 4.318 C64.034 4.979 63.975 5.64 64.018 6.297 64.093 7.44 64.277 8.577 64.329 9.72 64.425 11.847 64.471 13.978 64.514 16.108 64.583 19.536 64.646 22.964 64.689 26.393 64.756 31.871 64.8 37.349 64.869 42.827 64.877 43.688 64.967 44.545 65.021 45.404 Z" fill="#ffffff" fill-opacity="1" stroke="none"/>
 <path id="Trazado-8" d="M62.598 107.085 C62.861 105.77 63.207 104.465 63.37 103.138 63.695 100.489 63.918 97.826 64.184 95.17 L64.25 95.16 64.316 95.171 C64.391 98.505 64.845 101.786 65.71 105.009 65.534 105.241 65.285 105.448 65.192 105.71 64.465 107.76 63.78 109.826 63.049 111.876 62.949 112.156 62.671 112.374 62.475 112.62 L61.728 110.054 Z" fill="#ffffff" fill-opacity="1" stroke="none"/>
 <path id="Trazado-9" d="M62.476 112.621 C62.672 112.375 62.951 112.157 63.05 111.877 63.781 109.827 64.467 107.762 65.193 105.711 65.286 105.449 65.534 105.242 65.711 105.01 L66.966 107.764 C66.718 108.116 66.376 108.433 66.238 108.825 L63.834 115.884 C63.735 116.167 63.397 116.367 63.171 116.606 Z" fill="#ffffff" fill-opacity="1" stroke="none"/>
 <path id="Trazado-10" d="M63.171 116.605 C63.398 116.367 63.735 116.166 63.834 115.883 L66.238 108.824 C66.375 108.433 66.718 108.115 66.966 107.763 L68.181 108.8 C67.594 109.38 67.268 110.05 67.464 110.897 L67.095 112.105 C66.927 112.312 66.684 112.492 66.601 112.729 65.762 115.132 64.961 117.548 64.116 119.951 64.009 120.256 63.712 120.495 63.502 120.763 63.393 119.376 63.282 117.992 63.171 116.605 Z" fill="#ffffff" fill-opacity="1" stroke="none"/>
 <path id="Trazado-11" d="M63.503 120.763 C63.712 120.494 64.009 120.255 64.117 119.951 64.962 117.549 65.763 115.133 66.602 112.729 66.685 112.493 66.927 112.312 67.096 112.105 L66.587 117.65 C66.451 117.807 66.254 117.944 66.189 118.127 65.614 119.741 65.072 121.367 64.495 122.981 64.376 123.314 64.148 123.608 63.97 123.919 63.812 123.712 63.529 123.512 63.516 123.296 63.465 122.455 63.5 121.608 63.503 120.763 Z" fill="#ffffff" fill-opacity="1" stroke="none"/>
 <path id="Trazado-12" d="M63.969 123.919 C64.147 123.607 64.375 123.313 64.494 122.981 65.072 121.368 65.613 119.742 66.188 118.127 66.253 117.944 66.451 117.808 66.586 117.65 L66.598 121.29 65.38 124.414 Z" fill="#ffffff" fill-opacity="1" stroke="none"/>
 <path id="Trazado-13" d="M65.38 124.415 L66.598 121.291 66.849 124.987 Z" fill="#ebe9dc" fill-opacity="1" stroke="none"/>
 <path id="Trazado-14" d="M67.464 110.898 C67.268 110.051 67.593 109.38 68.181 108.801 L68.518 109.031 Z" fill="#cecdb7" fill-opacity="1" stroke="none"/>
 <path id="Trazado-15" d="M64.316 95.172 L64.25 95.161 64.184 95.171 64.339 94.612 Z" fill="#4faa41" fill-opacity="1" stroke="none"/>
</svg>
