<svg height="512" width="512" xmlns="http://www.w3.org/2000/svg"><path d="m357.3333435 402c-16.9334412-1.5552368-38.666687-4.8333435-59.6703491-27.7719421v47.1900024c38.5870056 25.0819397 104.9513855 20.4783325 128.0870056-9.6680603 13.75-17.9166565 19.4166565-41.916687 9.23703-69.0989685-23.98703-48.317688-80.98703-51.317688-97.5630188-81.8289795-18.3130493-49.4179993 57.2120056-58.3470612 93.4979858-25.0540161v-44.3600159c-15.4605103-9.9848022-40.0437927-11.0576477-57.2894897-10.1263733-45.5117188 2.4576416-76.0947266 28.9013672-75.6384888 68.293396-1.9606934 54.9865112 60.8295288 69.1448669 92.3589783 94.5920105 21.4131165 18.1699829 19.8804322 62.2346497-33.0196533 57.8329468zm-179.6913452 31.5140076v-213.4889984h-68.7779999v-35.3029938h175.6549835v35.303009h-68.92099v213.4890137zm302.3580017-401.5140076v448h-448v-448zm32-32h-512v512h512z"/></svg>